<?xml version="1.0" encoding="UTF-8" standalone="no"?><!DOCTYPE svg PUBLIC "-//W3C//DTD SVG 1.1//EN" "http://www.w3.org/Graphics/SVG/1.1/DTD/svg11.dtd"><svg width="100%" height="100%" viewBox="0 0 1280 800" version="1.1" xmlns="http://www.w3.org/2000/svg" xmlns:xlink="http://www.w3.org/1999/xlink" xml:space="preserve" xmlns:serif="http://www.serif.com/" style="fill-rule:evenodd;clip-rule:evenodd;stroke-linejoin:round;stroke-miterlimit:2;"><g><g transform="matrix(0.914078,-0.405539,0.405539,0.914078,-92.4666,-36.5278)"><text x="272.225px" y="498.763px" style="font-family:'Economica-Bold', 'Economica';font-weight:700;font-size:96px;fill:#fff;">HELLO</text></g><g transform="matrix(0.914078,-0.405539,0.405539,0.914078,-30.3403,-130.443)"><text x="81.657px" y="305.193px" style="font-family:'Economica-Bold', 'Economica';font-weight:700;font-size:96px;fill:#fff;">HELLO</text></g><g transform="matrix(0.914078,-0.405539,0.405539,0.914078,-144.15,-47.5612)"><text x="220.345px" y="615.215px" style="font-family:'Economica-Bold', 'Economica';font-weight:700;font-size:96px;fill:#fff;">HELLO</text></g><g transform="matrix(0.914078,-0.405539,0.405539,0.914078,-36.2937,-77.6711)"><text x="203.217px" y="345.628px" style="font-family:'Economica-Bold', 'Economica';font-weight:700;font-size:96px;fill:#fff;">HELLO</text></g><g transform="matrix(0.914078,-0.405539,0.405539,0.914078,-150.103,5.21036)"><text x="341.905px" y="655.65px" style="font-family:'Economica-Bold', 'Economica';font-weight:700;font-size:96px;fill:#fff;">HELLO</text></g><g transform="matrix(0.914078,-0.405539,0.405539,0.914078,-87.6039,-89.1194)"><text x="150.545px" y="460.992px" style="font-family:'Economica-Bold', 'Economica';font-weight:700;font-size:96px;fill:#fff;">HELLO</text></g><g transform="matrix(0.914078,-0.405539,0.405539,0.914078,-201.414,-6.23795)"><text x="289.233px" y="771.014px" style="font-family:'Economica-Bold', 'Economica';font-weight:700;font-size:96px;fill:#fff;">HELLO</text></g><g transform="matrix(0.914078,-0.405539,0.405539,0.914078,-82.9062,-263.491)"><text x="-258.608px" y="362.72px" style="font-family:'Economica-Bold', 'Economica';font-weight:700;font-size:96px;fill:#fff;">HELLO</text></g><g transform="matrix(0.914078,-0.405539,0.405539,0.914078,-196.716,-180.609)"><text x="-119.919px" y="672.742px" style="font-family:'Economica-Bold', 'Economica';font-weight:700;font-size:96px;fill:#fff;">HELLO</text></g><g transform="matrix(0.914078,-0.405539,0.405539,0.914078,-248.399,-191.643)"><text x="-171.799px" y="789.194px" style="font-family:'Economica-Bold', 'Economica';font-weight:700;font-size:96px;fill:#fff;">HELLO</text></g><g transform="matrix(0.914078,-0.405539,0.405539,0.914078,-140.543,-221.752)"><text x="-188.928px" y="519.607px" style="font-family:'Economica-Bold', 'Economica';font-weight:700;font-size:96px;fill:#fff;">HELLO</text></g><g transform="matrix(0.914078,-0.405539,0.405539,0.914078,-254.353,-138.871)"><text x="-50.239px" y="829.629px" style="font-family:'Economica-Bold', 'Economica';font-weight:700;font-size:96px;fill:#fff;">HELLO</text></g><g transform="matrix(0.914078,-0.405539,0.405539,0.914078,-191.853,-233.201)"><text x="-241.6px" y="634.97px" style="font-family:'Economica-Bold', 'Economica';font-weight:700;font-size:96px;fill:#fff;">HELLO</text></g><g transform="matrix(0.914078,-0.405539,0.405539,0.914078,-305.663,-150.319)"><text x="-102.911px" y="944.992px" style="font-family:'Economica-Bold', 'Economica';font-weight:700;font-size:96px;fill:#fff;">HELLO</text></g><g transform="matrix(0.914078,-0.405539,0.405539,0.914078,11.2816,106.861)"><text x="662.485px" y="325.62px" style="font-family:'Economica-Bold', 'Economica';font-weight:700;font-size:96px;fill:#fff;">HELLO</text></g><g transform="matrix(0.914078,-0.405539,0.405539,0.914078,-40.4018,95.8277)"><text x="610.605px" y="442.072px" style="font-family:'Economica-Bold', 'Economica';font-weight:700;font-size:96px;fill:#fff;">HELLO</text></g><g transform="matrix(0.914078,-0.405539,0.405539,0.914078,-46.3552,148.599)"><text x="732.165px" y="482.507px" style="font-family:'Economica-Bold', 'Economica';font-weight:700;font-size:96px;fill:#fff;">HELLO</text></g><g transform="matrix(0.914078,-0.405539,0.405539,0.914078,16.1444,54.2696)"><text x="540.805px" y="287.849px" style="font-family:'Economica-Bold', 'Economica';font-weight:700;font-size:96px;fill:#fff;">HELLO</text></g><g transform="matrix(0.914078,-0.405539,0.405539,0.914078,-97.6654,137.151)"><text x="679.493px" y="597.871px" style="font-family:'Economica-Bold', 'Economica';font-weight:700;font-size:96px;fill:#fff;">HELLO</text></g><g transform="matrix(0.914078,-0.405539,0.405539,0.914078,-306.082,-210.365)"><text x="-244.824px" y="915.958px" style="font-family:'Economica-Bold', 'Economica';font-weight:700;font-size:96px;fill:#fff;">HELLO</text></g><g transform="matrix(0.914078,-0.405539,0.405539,0.914078,-40.4475,35.367)"><text x="467.9px" y="411.95px" style="font-family:'Economica-Bold', 'Economica';font-weight:700;font-size:96px;fill:#fff;">HELLO</text></g><g transform="matrix(0.914078,-0.405539,0.405539,0.914078,21.6787,-58.5479)"><text x="277.332px" y="218.38px" style="font-family:'Economica-Bold', 'Economica';font-weight:700;font-size:96px;fill:#fff;">HELLO</text></g><g transform="matrix(0.914078,-0.405539,0.405539,0.914078,-92.131,24.3336)"><text x="416.021px" y="528.402px" style="font-family:'Economica-Bold', 'Economica';font-weight:700;font-size:96px;fill:#fff;">HELLO</text></g><g transform="matrix(0.914078,-0.405539,0.405539,0.914078,15.7254,-5.77627)"><text x="398.892px" y="258.815px" style="font-family:'Economica-Bold', 'Economica';font-weight:700;font-size:96px;fill:#fff;">HELLO</text></g><g transform="matrix(0.914078,-0.405539,0.405539,0.914078,-98.0843,77.1051)"><text x="537.58px" y="568.837px" style="font-family:'Economica-Bold', 'Economica';font-weight:700;font-size:96px;fill:#fff;">HELLO</text></g><g transform="matrix(0.914078,-0.405539,0.405539,0.914078,-35.5848,-17.2246)"><text x="346.22px" y="374.178px" style="font-family:'Economica-Bold', 'Economica';font-weight:700;font-size:96px;fill:#fff;">HELLO</text></g><g transform="matrix(0.914078,-0.405539,0.405539,0.914078,-149.395,65.6568)"><text x="484.908px" y="684.2px" style="font-family:'Economica-Bold', 'Economica';font-weight:700;font-size:96px;fill:#fff;">HELLO</text></g><g transform="matrix(0.914078,-0.405539,0.405539,0.914078,-30.8871,-191.596)"><text x="-62.932px" y="275.907px" style="font-family:'Economica-Bold', 'Economica';font-weight:700;font-size:96px;fill:#fff;">HELLO</text></g><g transform="matrix(0.914078,-0.405539,0.405539,0.914078,-144.697,-108.714)"><text x="75.756px" y="585.929px" style="font-family:'Economica-Bold', 'Economica';font-weight:700;font-size:96px;fill:#fff;">HELLO</text></g><g transform="matrix(0.914078,-0.405539,0.405539,0.914078,-82.5706,-202.629)"><text x="-114.812px" y="392.358px" style="font-family:'Economica-Bold', 'Economica';font-weight:700;font-size:96px;fill:#fff;">HELLO</text></g><g transform="matrix(0.914078,-0.405539,0.405539,0.914078,-196.38,-119.748)"><text x="23.876px" y="702.381px" style="font-family:'Economica-Bold', 'Economica';font-weight:700;font-size:96px;fill:#fff;">HELLO</text></g><g transform="matrix(0.914078,-0.405539,0.405539,0.914078,-88.5239,-149.858)"><text x="6.748px" y="432.794px" style="font-family:'Economica-Bold', 'Economica';font-weight:700;font-size:96px;fill:#fff;">HELLO</text></g><g transform="matrix(0.914078,-0.405539,0.405539,0.914078,-202.334,-66.9763)"><text x="145.436px" y="742.816px" style="font-family:'Economica-Bold', 'Economica';font-weight:700;font-size:96px;fill:#fff;">HELLO</text></g><g transform="matrix(0.914078,-0.405539,0.405539,0.914078,-139.834,-161.306)"><text x="-45.925px" y="548.157px" style="font-family:'Economica-Bold', 'Economica';font-weight:700;font-size:96px;fill:#fff;">HELLO</text></g><g transform="matrix(0.914078,-0.405539,0.405539,0.914078,-253.644,-78.4246)"><text x="92.764px" y="858.179px" style="font-family:'Economica-Bold', 'Economica';font-weight:700;font-size:96px;fill:#fff;">HELLO</text></g><g transform="matrix(0.914078,-0.405539,0.405539,0.914078,63.3007,178.756)"><text x="858.16px" y="238.807px" style="font-family:'Economica-Bold', 'Economica';font-weight:700;font-size:96px;fill:#fff;">HELLO</text></g><g transform="matrix(0.914078,-0.405539,0.405539,0.914078,11.6172,167.722)"><text x="806.28px" y="355.259px" style="font-family:'Economica-Bold', 'Economica';font-weight:700;font-size:96px;fill:#fff;">HELLO</text></g><g transform="matrix(0.914078,-0.405539,0.405539,0.914078,5.6639,220.494)"><text x="927.84px" y="395.694px" style="font-family:'Economica-Bold', 'Economica';font-weight:700;font-size:96px;fill:#fff;">HELLO</text></g><g transform="matrix(0.914078,-0.405539,0.405539,0.914078,68.1635,126.164)"><text x="736.48px" y="201.036px" style="font-family:'Economica-Bold', 'Economica';font-weight:700;font-size:96px;fill:#fff;">HELLO</text></g><g transform="matrix(0.914078,-0.405539,0.405539,0.914078,-45.6463,209.046)"><text x="875.168px" y="511.058px" style="font-family:'Economica-Bold', 'Economica';font-weight:700;font-size:96px;fill:#fff;">HELLO</text></g></g><g><g transform="matrix(0.914078,-0.405539,0.405539,0.914078,-362.29,-169.6)"><text x="-176.726px" y="1068.99px" style="font-family:'Economica-Bold', 'Economica';font-weight:700;font-size:96px;fill:#fff;">HELLO</text></g><g transform="matrix(0.914078,-0.405539,0.405539,0.914078,-154.292,117.87)"><text x="605.678px" y="721.865px" style="font-family:'Economica-Bold', 'Economica';font-weight:700;font-size:96px;fill:#fff;">HELLO</text></g><g transform="matrix(0.914078,-0.405539,0.405539,0.914078,-268.102,200.751)"><text x="744.367px" y="1031.89px" style="font-family:'Economica-Bold', 'Economica';font-weight:700;font-size:96px;fill:#fff;">HELLO</text></g><g transform="matrix(0.914078,-0.405539,0.405539,0.914078,-205.975,106.837)"><text x="553.799px" y="838.317px" style="font-family:'Economica-Bold', 'Economica';font-weight:700;font-size:96px;fill:#fff;">HELLO</text></g><g transform="matrix(0.914078,-0.405539,0.405539,0.914078,-211.929,159.608)"><text x="675.358px" y="878.752px" style="font-family:'Economica-Bold', 'Economica';font-weight:700;font-size:96px;fill:#fff;">HELLO</text></g><g transform="matrix(0.914078,-0.405539,0.405539,0.914078,-263.239,148.16)"><text x="622.686px" y="994.115px" style="font-family:'Economica-Bold', 'Economica';font-weight:700;font-size:96px;fill:#fff;">HELLO</text></g><g transform="matrix(0.914078,-0.405539,0.405539,0.914078,-258.541,-26.2114)"><text x="213.534px" y="895.843px" style="font-family:'Economica-Bold', 'Economica';font-weight:700;font-size:96px;fill:#fff;">HELLO</text></g><g transform="matrix(0.914078,-0.405539,0.405539,0.914078,-310.225,-37.2448)"><text x="161.654px" y="1012.3px" style="font-family:'Economica-Bold', 'Economica';font-weight:700;font-size:96px;fill:#fff;">HELLO</text></g><g transform="matrix(0.914078,-0.405539,0.405539,0.914078,-316.178,15.5268)"><text x="283.214px" y="1052.73px" style="font-family:'Economica-Bold', 'Economica';font-weight:700;font-size:96px;fill:#fff;">HELLO</text></g><g transform="matrix(0.914078,-0.405539,0.405539,0.914078,-50.5438,261.259)"><text x="995.938px" y="548.722px" style="font-family:'Economica-Bold', 'Economica';font-weight:700;font-size:96px;fill:#fff;">HELLO</text></g><g transform="matrix(0.914078,-0.405539,0.405539,0.914078,-102.227,250.226)"><text x="944.058px" y="665.174px" style="font-family:'Economica-Bold', 'Economica';font-weight:700;font-size:96px;fill:#fff;">HELLO</text></g><g transform="matrix(0.914078,-0.405539,0.405539,0.914078,-159.491,291.549)"><text x="1012.95px" y="820.973px" style="font-family:'Economica-Bold', 'Economica';font-weight:700;font-size:96px;fill:#fff;">HELLO</text></g><g transform="matrix(0.914078,-0.405539,0.405539,0.914078,-310.27,-97.7055)"><text x="18.949px" y="982.173px" style="font-family:'Economica-Bold', 'Economica';font-weight:700;font-size:96px;fill:#fff;">HELLO</text></g><g transform="matrix(0.914078,-0.405539,0.405539,0.914078,-361.954,-108.739)"><text x="-32.931px" y="1098.62px" style="font-family:'Economica-Bold', 'Economica';font-weight:700;font-size:96px;fill:#fff;">HELLO</text></g><g transform="matrix(0.914078,-0.405539,0.405539,0.914078,-102.273,189.765)"><text x="801.354px" y="635.051px" style="font-family:'Economica-Bold', 'Economica';font-weight:700;font-size:96px;fill:#fff;">HELLO</text></g><g transform="matrix(0.914078,-0.405539,0.405539,0.914078,-216.083,272.646)"><text x="940.042px" y="945.074px" style="font-family:'Economica-Bold', 'Economica';font-weight:700;font-size:96px;fill:#fff;">HELLO</text></g><g transform="matrix(0.914078,-0.405539,0.405539,0.914078,-153.956,178.731)"><text x="749.474px" y="751.503px" style="font-family:'Economica-Bold', 'Economica';font-weight:700;font-size:96px;fill:#fff;">HELLO</text></g><g transform="matrix(0.914078,-0.405539,0.405539,0.914078,-267.766,261.613)"><text x="888.162px" y="1061.53px" style="font-family:'Economica-Bold', 'Economica';font-weight:700;font-size:96px;fill:#fff;">HELLO</text></g><g transform="matrix(0.914078,-0.405539,0.405539,0.914078,-159.91,231.503)"><text x="871.034px" y="791.938px" style="font-family:'Economica-Bold', 'Economica';font-weight:700;font-size:96px;fill:#fff;">HELLO</text></g><g transform="matrix(0.914078,-0.405539,0.405539,0.914078,-211.22,220.055)"><text x="818.361px" y="907.302px" style="font-family:'Economica-Bold', 'Economica';font-weight:700;font-size:96px;fill:#fff;">HELLO</text></g><g transform="matrix(0.914078,-0.405539,0.405539,0.914078,-206.522,45.6834)"><text x="409.209px" y="809.03px" style="font-family:'Economica-Bold', 'Economica';font-weight:700;font-size:96px;fill:#fff;">HELLO</text></g><g transform="matrix(0.914078,-0.405539,0.405539,0.914078,-320.332,128.565)"><text x="547.897px" y="1119.05px" style="font-family:'Economica-Bold', 'Economica';font-weight:700;font-size:96px;fill:#fff;">HELLO</text></g><g transform="matrix(0.914078,-0.405539,0.405539,0.914078,-258.206,34.65)"><text x="357.329px" y="925.482px" style="font-family:'Economica-Bold', 'Economica';font-weight:700;font-size:96px;fill:#fff;">HELLO</text></g><g transform="matrix(0.914078,-0.405539,0.405539,0.914078,-264.159,87.4215)"><text x="478.889px" y="965.917px" style="font-family:'Economica-Bold', 'Economica';font-weight:700;font-size:96px;fill:#fff;">HELLO</text></g><g transform="matrix(0.914078,-0.405539,0.405539,0.914078,-315.469,75.9732)"><text x="426.217px" y="1081.28px" style="font-family:'Economica-Bold', 'Economica';font-weight:700;font-size:96px;fill:#fff;">HELLO</text></g></g></svg>